<?xml version="1.0" encoding="UTF-8" standalone="no"?>
<!-- Created with Inkscape (http://www.inkscape.org/) -->

<svg
   width="100mm"
   height="100mm"
   viewBox="0 0 100 100"
   version="1.1"
   id="svg1"
   xml:space="preserve"
   xmlns:xlink="http://www.w3.org/1999/xlink"
   xmlns="http://www.w3.org/2000/svg"
   xmlns:svg="http://www.w3.org/2000/svg"><defs
     id="defs1"><linearGradient
       id="linearGradient13"><stop
         style="stop-color:#097e6d;stop-opacity:1;"
         offset="0"
         id="stop13" /><stop
         style="stop-color:#15bfb4;stop-opacity:1;"
         offset="1"
         id="stop14" /></linearGradient><linearGradient
       id="linearGradient2"><stop
         style="stop-color:#092e54;stop-opacity:1;"
         offset="0"
         id="stop2" /><stop
         style="stop-color:#1c5b93;stop-opacity:1;"
         offset="1"
         id="stop3" /></linearGradient><linearGradient
       xlink:href="#linearGradient2"
       id="linearGradient3"
       x1="79.210403"
       y1="112.02756"
       x2="33.369869"
       y2="-1.4317493"
       gradientUnits="userSpaceOnUse"
       gradientTransform="matrix(0.81719507,0,0,0.84176564,3.9999996,3.4521162)" /><linearGradient
       xlink:href="#linearGradient13"
       id="linearGradient14"
       x1="216.75247"
       y1="119.55978"
       x2="23.377163"
       y2="37.476826"
       gradientUnits="userSpaceOnUse" /></defs><g
     id="layer1"
     mask="none"
     style="display:inline"><rect
       style="fill:url(#linearGradient3);stroke-width:0.219443"
       id="rect1"
       width="100"
       height="100"
       x="-2.220446e-15"
       y="1.5987212e-14" /><path
       style="fill:url(#linearGradient14);stroke-width:0.270564"
       d="m 35.454166,47.360417 c 0,0 -67.175146,60.267663 35.840289,57.011963 C 256.28927,98.525812 100,84.926669 100,84.926669 c 0,0 -108.5989583,30.019741 -64.545834,-37.566252 z"
       id="path3" /><path
       style="display:inline;fill:#ffffff;fill-opacity:1;stroke-width:0.293084"
       d="m 39.168127,48.152784 -3.85163,11.911471 8.3333,-9.583705 16.6666,9.583705 16.6666,-49.999798 -66.666403,21.838097 20.332023,11.495102 36.53324,-24.884043 z"
       id="path4-2" /><path
       style="font-weight:bold;font-size:106.667px;-inkscape-font-specification:'sans-serif Bold';white-space:pre;fill:#ffffff"
       d="m 184.42677,257.39342 q 29.76009,0 29.76009,22.18673 0,7.7867 -3.94668,12.69338 -3.94668,4.90668 -9.81336,7.68002 l 21.6534,33.60011 H 203.41349 L 186.45344,304.3269 h -9.06669 v 29.22676 h -16.32006 v -76.16024 z m -0.32,12.69337 h -6.72002 v 21.6534 h 6.72002 q 6.50668,0 10.02669,-2.66667 3.52002,-2.66668 3.52002,-8.7467 0,-5.12001 -3.30668,-7.68002 -3.20001,-2.56001 -10.24003,-2.56001 z m 63.36021,63.46687 h -15.89339 v -76.16024 h 43.62681 v 13.22671 h -27.73342 v 19.62672 h 25.81341 v 13.22671 h -25.81341 z"
       id="text4"
       transform="matrix(0.29205355,0,0,0.29205355,-0.6121488,-12.891908)"
       aria-label="RF" /></g></svg>
